<?xml version="1.0" encoding="utf-8"?>
<!-- Generator: Adobe Illustrator 23.0.2, SVG Export Plug-In . SVG Version: 6.00 Build 0)  -->
<svg version="1.1" id="Calque_1" xmlns="http://www.w3.org/2000/svg" xmlns:xlink="http://www.w3.org/1999/xlink" x="0px" y="0px"
	 viewBox="0 0 221.87 180.66" style="enable-background:new 0 0 221.87 180.66;" xml:space="preserve">
<style type="text/css">
	.st0{fill:#FFDC8E;}
	.st1{fill:#4D2D54;}
	.st2{fill:#D1A7F1;}
	.st3{fill:#8190EB;}
	.st4{fill:#FBF5F9;}
	.st5{fill:#F0D9E9;}
	.st6{fill:#E16D90;}
	.st7{fill:#FF9AA5;}
	.st8{fill:#FFFFFF;}
</style>
<g>
	<g>
		<path class="st0" d="M115,61.53c2.58-0.28,4.93-1.46,6.61-3.1c1.62-1.58,2.72-3.33,4.79-4.53c1.99-1.16,4.54-1.5,6.95-1.56
			c3.03-0.08,6.14,0.22,9.07-0.37c2.69-0.54,5.12-1.83,6.83-3.63c1.24-1.3,2.1-2.84,2.9-4.39c0.67-1.29,1.31-2.59,1.95-3.89
			c-5.56,2.72-11.84,4.82-18.38,4.46c-4.43-0.24-8.85-1.6-13.22-1.14c-4.48,0.48-8.27,2.82-11.65,5.27
			c-1.4,1.02-2.77,2.07-4.09,3.15c-1.38,1.13-2.81,2.48-2.71,4.14C104.27,59.64,111.48,61.91,115,61.53z"/>
		<g>
			<path class="st1" d="M115.2,62.25c3.58-0.65,5.75-2.24,8.3-4.74c4.7-4.63,9.18-4.2,15.34-4.43c8.73-0.33,12.31-5.33,15.91-12.64
				c0.34-0.69-0.34-1.35-1.03-1.03c-4.57,2.16-9.37,3.95-14.46,4.32c-4.41,0.32-8.64-0.82-13-1.12c-7.27-0.5-13.03,3.12-18.54,7.47
				c-2.5,1.98-5.85,4.6-3.64,7.99c2.09,3.23,7.38,4.38,10.93,4.21c0.96-0.05,0.97-1.55,0-1.5c-2.03,0.1-3.99-0.28-5.87-1.02
				c-0.82-0.32-3.05-1.09-3.41-2.03c-0.68-1.73,0.58-4.17,1.57-5.4c3.82-4.76,12.16-8.45,18.03-8.26
				c5.36,0.17,10.38,1.67,15.79,0.96c4.71-0.62,9.11-2.32,13.38-4.33c-0.34-0.34-0.68-0.68-1.03-1.03
				c-2.28,4.62-4.4,9.38-9.66,11.15c-4.31,1.46-8.95,0.28-13.36,1c-6.64,1.08-9.07,7.79-15.64,8.98
				C113.86,60.98,114.26,62.42,115.2,62.25z"/>
		</g>
	</g>
	<g>
		<path class="st2" d="M110.51,56.79c5.5-1.42,5.24-7.14,9.83-9.5c1.84-0.95,4.13-1.08,6.33-1.02c3.65,0.1,7.29,0.65,10.95,0.85
			c3.65,0.21,7.41,0.05,10.7-1.19c3.28-1.24,6.02-3.74,6.46-6.79c-2.29,1.69-5.32,2.66-8.42,2.69c-4.36,0.04-8.52-1.69-12.75-2.78
			c-3.28-0.85-6.67-1.32-10.05-1.68c-1.28-0.13-2.57-0.25-3.85-0.22c-1.49,0.04-2.96,0.3-4.38,0.66c-2.98,0.75-5.78,1.96-8.23,3.55
			c-3.66,2.38-6.61,5.84-6.92,9.8c-0.15,1.91,0.49,4.03,2.75,4.82C105.44,56.86,107.87,57.47,110.51,56.79z"/>
		<g>
			<path class="st1" d="M110.71,57.52c3.12-1.09,4.5-3.04,6.3-5.7c4.32-6.36,11.24-4.72,17.87-4.15c7.32,0.62,18.36,0.55,20.62-8.32
				c0.15-0.61-0.54-1.22-1.1-0.85c-8.57,5.59-18.23-0.17-27.26-1.44c-7.11-1-13.54-0.55-19.79,3.28c-3.97,2.43-8.59,6.93-7.9,12.09
				C100.14,57.57,106.54,58.21,110.71,57.52c0.95-0.16,0.55-1.6-0.4-1.45c-4.6,0.77-5.29,0.31-7.45-3.17
				c-1.83-2.95-2.01-3.56-0.23-6.3c1.74-2.67,4.59-4.65,7.4-6.06c6.21-3.1,12.55-2.83,19.23-1.65c8.9,1.56,17.41,6.44,25.9,0.9
				c-0.37-0.28-0.73-0.56-1.1-0.85c-3.09,12.16-21.32,5.88-29.86,6.64c-2.41,0.22-4.56,0.9-6.32,2.6c-2.83,2.74-3.38,6.43-7.56,7.89
				C109.4,56.39,109.79,57.83,110.71,57.52z"/>
		</g>
	</g>
	<g>
		<path class="st3" d="M101.24,40.33c1.84-1.62,4.14-2.89,6.57-3.72c7.54-2.56,16.42-1.85,24.24,0.2c4.07,1.07,7.98,2.69,12.15,3.4
			s8.86,0.33,11.79-2.13c-0.81,2.43-3.2,4.39-6.11,5c-1.95,0.41-4.03,0.23-6.06,0.01c-4.65-0.51-9.25-1.29-13.84-2.16
			c-4.42-0.84-9.28-1.45-13.61-0.31c-4.17,1.09-7.81,4.62-9.66,7.88c-0.7,1.23-1.22,2.55-2.22,3.61s-2.67,1.81-4.25,1.4
			c-1.43-0.37-2.04-1.12-2.57-2.3C95.97,47.37,98.21,43,101.24,40.33z"/>
		<g>
			<path class="st1" d="M101.77,40.86c9.06-7.28,22.3-5.7,32.68-2.57c7.09,2.14,15.19,5.17,21.92,0.44
				c-0.34-0.34-0.68-0.68-1.03-1.03c-3.37,7.43-13.75,4.48-19.98,3.43c-5.43-0.91-10.94-2.39-16.49-1.72
				c-3.82,0.46-7.05,2.06-9.77,4.79c-1.36,1.36-2.39,2.87-3.35,4.53c-0.33,0.63-0.67,1.24-1.02,1.85c-2.29-0.77-4.59-1.55-6.88-2.32
				C97.28,45.81,100.26,42.34,101.77,40.86c0.69-0.68-0.37-1.74-1.06-1.06c-3.08,3.03-7.1,10.25-2.17,13.73
				c5.7,4.02,8.86-5.59,11.62-8.27c8.17-7.94,20.24-3.21,30.09-1.87c6.09,0.83,13.37,1.73,16.39-4.93c0.27-0.61-0.35-1.51-1.03-1.03
				c-8.96,6.3-21.72-1.72-31.35-2.86c-8.23-0.97-16.92-0.11-23.55,5.23C99.95,40.41,101.02,41.46,101.77,40.86z"/>
		</g>
	</g>
</g>
<g>
	<g>
		<path class="st0" d="M70.45,35.82c2.02-0.9,3.62-2.62,4.57-4.62c0.91-1.92,1.37-3.88,2.74-5.55c1.32-1.6,3.3-2.56,5.23-3.21
			c2.43-0.82,5.01-1.29,7.23-2.58c2.04-1.18,3.68-3.02,4.62-5.18c0.68-1.56,0.99-3.26,1.25-4.95c0.22-1.41,0.41-2.82,0.61-4.23
			c-3.82,3.99-8.37,7.55-13.75,8.8c-3.64,0.85-7.55,0.62-10.97,2.13c-3.5,1.56-5.99,4.74-8.1,7.94c-0.88,1.33-1.72,2.68-2.52,4.05
			c-0.84,1.42-1.66,3.09-1.16,4.66C61.3,36.62,67.7,37.05,70.45,35.82z"/>
		<g>
			<path class="st1" d="M70.83,36.47c2.81-1.54,4.12-3.46,5.46-6.33c1.6-3.44,3.21-5.6,6.91-6.97c1.93-0.71,3.98-1.05,5.86-1.89
				c6.58-2.96,7.48-9.05,8.37-15.57c0.09-0.69-0.67-1.32-1.25-0.73c-2.77,2.81-5.78,5.48-9.38,7.18c-3.4,1.61-6.75,1.7-10.4,2.35
				c-5.88,1.04-9.42,4.04-12.75,8.9c-2.01,2.94-6.22,7.9-3.23,11.47c2.3,2.74,7.15,2.75,10.23,1.66c0.9-0.32,0.51-1.77-0.4-1.45
				c-1.86,0.66-3.98,0.8-5.9,0.3c-5.05-1.32-2.13-7.06-0.24-9.97c3.61-5.55,7.35-8.72,14.09-9.65c7.85-1.09,13.46-4.07,19.05-9.74
				C96.83,5.79,96.41,5.54,96,5.3c-0.53,3.86-0.75,8.12-3.24,11.29c-2.98,3.79-7.36,3.86-11.4,5.68c-6.13,2.76-5.64,9.81-11.28,12.9
				C69.22,35.64,69.98,36.93,70.83,36.47z"/>
		</g>
	</g>
	<g>
		<path class="st2" d="M65.63,32.34c4.09-2.72,2.46-8.18,5.58-11.59c1.25-1.37,3.07-2.05,4.86-2.53c2.98-0.8,6.06-1.16,9.06-1.85
			c3-0.69,6.01-1.77,8.35-3.77c2.34-2,3.94-5.08,3.53-8.14c-1.43,2.2-3.64,3.87-6.14,4.66c-3.52,1.1-7.31,0.45-11,0.43
			C77,9.53,74.15,9.9,71.33,10.39c-1.07,0.18-2.14,0.38-3.17,0.73c-1.2,0.41-2.32,1.01-3.38,1.7c-2.22,1.45-4.19,3.31-5.77,5.44
			c-2.37,3.2-3.89,7.25-3.15,11.17c0.35,1.88,1.4,3.77,3.42,3.98C61.55,33.65,63.67,33.65,65.63,32.34z"/>
		<g>
			<path class="st1" d="M66.16,32.87c2.4-1.96,2.81-4.17,3.62-7.03c2.01-7.14,8.48-7.21,14.65-8.56c6.7-1.46,13.55-5.04,13.34-12.82
				c-0.02-0.8-0.97-0.95-1.4-0.38C90.6,11.7,79.44,8.07,71.14,9.66c-5.52,1.06-10.01,4.16-13.18,8.84
				c-4.97,7.35-3.26,20.14,8.05,14.49c0.86-0.43,0.1-1.73-0.76-1.3c-2.05,1.03-6.24,1.62-7.96-0.49c-1.06-1.31-0.93-4.43-0.65-5.99
				c0.57-3.13,2.35-5.93,4.44-8.26c4.14-4.62,9.38-6.03,15.36-6.52c8.02-0.65,15.7,1.69,21.21-5.6c-0.47-0.13-0.93-0.25-1.4-0.38
				C96.6,17.26,80.7,14.56,73.13,18.46c-5.66,2.92-3.56,9.66-8.05,13.34C64.36,32.43,65.42,33.48,66.16,32.87z"/>
		</g>
	</g>
	<g>
		<path class="st3" d="M54.04,18.71c1.08-2.01,2.63-3.81,4.39-5.2c5.46-4.31,12.81-5.8,19.64-5.73c3.56,0.04,7.12,0.65,10.66,0.31
			c3.54-0.34,7.24-1.85,9-4.94c-0.05,2.55-1.49,5.03-3.69,6.32c-1.48,0.87-3.2,1.21-4.89,1.49c-3.89,0.65-7.8,1.02-11.72,1.29
			c-3.78,0.27-7.86,0.87-11.08,3.02c-3.1,2.07-5.16,6.38-5.85,9.97c-0.26,1.36-0.35,2.76-0.89,4.03c-0.55,1.27-1.71,2.4-3.09,2.39
			c-1.25-0.01-1.93-0.59-2.65-1.6C51.54,26.8,52.26,22.02,54.04,18.71z"/>
		<g>
			<path class="st1" d="M54.69,19.08C60.27,9.72,71.67,8.15,81.63,8.69c6.27,0.34,12.83,0.56,16.75-5.17
				c-0.47-0.13-0.93-0.25-1.4-0.38c-1.24,11.45-22.41,6.38-30.3,11.06c-2.59,1.54-4.36,3.91-5.57,6.65
				c-0.79,1.78-0.82,3.84-1.56,5.55c0.11,1.93-0.96,2.28-3.21,1.06c-2.35,0.75-3.38,0.19-3.07-1.68
				C52.68,23.75,53.87,20.82,54.69,19.08c0.41-0.87-0.88-1.63-1.3-0.76c-1.74,3.69-3.25,10.33,0.83,13.25
				c4.86,3.49,6.42-3.68,7.16-6.83c3.01-12.73,15.61-11.28,25.92-12.76c5.7-0.82,10.49-2.52,11.18-8.85
				c0.09-0.81-1.02-0.93-1.4-0.38C91.55,10.83,78.2,6.1,69.89,7.72c-6.76,1.31-12.92,4.58-16.5,10.59
				C52.9,19.16,54.2,19.91,54.69,19.08z"/>
		</g>
	</g>
</g>
<g>
	<g>
		<path class="st0" d="M94.31,45.57c2.58-0.28,4.93-1.46,6.61-3.1c1.62-1.58,2.72-3.33,4.79-4.53c1.99-1.16,4.54-1.5,6.95-1.56
			c3.03-0.08,6.14,0.22,9.07-0.37c2.69-0.54,5.12-1.83,6.83-3.63c1.24-1.3,2.1-2.84,2.9-4.39c0.67-1.29,1.31-2.59,1.95-3.89
			c-5.56,2.72-11.84,4.82-18.38,4.46c-4.43-0.24-8.85-1.6-13.22-1.14c-4.48,0.48-8.27,2.81-11.65,5.27
			c-1.4,1.02-2.77,2.07-4.09,3.15c-1.38,1.13-2.81,2.48-2.71,4.14C83.57,43.68,90.79,45.96,94.31,45.57z"/>
		<g>
			<path class="st1" d="M94.51,46.29c3.58-0.65,5.75-2.24,8.3-4.74c4.7-4.63,9.18-4.2,15.34-4.43c8.73-0.33,12.31-5.33,15.91-12.64
				c0.34-0.69-0.34-1.35-1.03-1.03c-4.57,2.16-9.37,3.95-14.46,4.32c-4.41,0.32-8.64-0.82-13-1.12c-7.27-0.5-13.03,3.12-18.54,7.47
				c-2.5,1.98-5.85,4.6-3.64,7.99c2.09,3.23,7.38,4.38,10.93,4.21c0.96-0.05,0.97-1.55,0-1.5c-2.03,0.1-3.99-0.28-5.87-1.02
				c-0.82-0.32-3.05-1.09-3.41-2.03c-0.68-1.73,0.58-4.17,1.57-5.4c3.82-4.76,12.16-8.45,18.03-8.26
				c5.36,0.17,10.38,1.67,15.79,0.96c4.71-0.62,9.11-2.32,13.38-4.33c-0.34-0.34-0.68-0.68-1.03-1.03
				c-2.28,4.62-4.4,9.38-9.66,11.15c-4.31,1.46-8.95,0.28-13.36,1c-6.64,1.08-9.07,7.79-15.64,8.98
				C93.16,45.02,93.56,46.46,94.51,46.29z"/>
		</g>
	</g>
	<g>
		<path class="st2" d="M89.81,40.84c5.5-1.42,5.24-7.14,9.83-9.5c1.84-0.95,4.13-1.08,6.33-1.02c3.65,0.1,7.29,0.65,10.95,0.85
			c3.65,0.21,7.41,0.05,10.7-1.19c3.28-1.24,6.02-3.74,6.46-6.79c-2.29,1.69-5.32,2.66-8.42,2.69c-4.36,0.04-8.52-1.69-12.75-2.78
			c-3.28-0.85-6.67-1.32-10.05-1.68c-1.28-0.13-2.57-0.25-3.85-0.22c-1.49,0.04-2.96,0.3-4.38,0.66c-2.98,0.75-5.78,1.96-8.23,3.55
			c-3.66,2.38-6.61,5.84-6.92,9.8c-0.15,1.91,0.49,4.03,2.75,4.82C84.74,40.9,87.17,41.52,89.81,40.84z"/>
		<g>
			<path class="st1" d="M90.01,41.56c3.12-1.09,4.5-3.04,6.3-5.7c4.32-6.36,11.24-4.72,17.87-4.15c7.32,0.62,18.36,0.55,20.62-8.32
				c0.15-0.61-0.54-1.22-1.1-0.85c-8.56,5.59-18.23-0.17-27.26-1.44c-7.11-1-13.54-0.55-19.79,3.28c-3.97,2.43-8.59,6.93-7.9,12.09
				C79.44,41.61,85.84,42.26,90.01,41.56c0.95-0.16,0.55-1.6-0.4-1.45c-4.6,0.77-5.29,0.31-7.45-3.17c-1.83-2.95-2.01-3.56-0.23-6.3
				c1.74-2.67,4.59-4.65,7.4-6.06c6.21-3.1,12.55-2.83,19.23-1.65c8.9,1.56,17.41,6.44,25.9,0.9c-0.37-0.28-0.73-0.56-1.1-0.85
				c-3.09,12.16-21.32,5.88-29.86,6.64c-2.41,0.22-4.56,0.9-6.32,2.6c-2.83,2.74-3.38,6.43-7.56,7.89
				C88.7,40.43,89.09,41.88,90.01,41.56z"/>
		</g>
	</g>
	<g>
		<path class="st3" d="M80.54,24.38c1.84-1.62,4.14-2.89,6.57-3.72c7.54-2.56,16.42-1.85,24.24,0.2c4.07,1.07,7.98,2.69,12.15,3.4
			c4.17,0.71,8.86,0.33,11.79-2.13c-0.81,2.43-3.2,4.39-6.11,5c-1.95,0.41-4.03,0.23-6.06,0.01c-4.65-0.51-9.25-1.29-13.84-2.16
			c-4.42-0.84-9.28-1.45-13.61-0.31c-4.17,1.09-7.81,4.62-9.66,7.88c-0.7,1.23-1.22,2.55-2.22,3.61s-2.67,1.81-4.25,1.4
			c-1.43-0.37-2.04-1.12-2.57-2.3C75.27,31.42,77.51,27.04,80.54,24.38z"/>
		<g>
			<path class="st1" d="M81.07,24.91c9.06-7.28,22.3-5.7,32.68-2.57c7.09,2.14,15.19,5.17,21.92,0.44
				c-0.34-0.34-0.68-0.68-1.03-1.03c-3.37,7.43-13.75,4.48-19.98,3.43c-5.43-0.91-10.94-2.39-16.49-1.72
				c-3.82,0.46-7.05,2.06-9.77,4.79c-1.36,1.36-2.39,2.86-3.35,4.53c-0.33,0.63-0.67,1.24-1.02,1.85c-2.29-0.77-4.59-1.55-6.88-2.32
				C76.58,29.85,79.57,26.38,81.07,24.91c0.69-0.68-0.37-1.74-1.06-1.06c-3.08,3.03-7.1,10.25-2.17,13.73
				c5.7,4.02,8.86-5.59,11.62-8.27c8.17-7.94,20.24-3.21,30.09-1.87c6.09,0.83,13.37,1.73,16.39-4.93c0.27-0.61-0.35-1.51-1.03-1.03
				c-8.96,6.3-21.72-1.72-31.35-2.86c-8.23-0.97-16.92-0.11-23.55,5.23C79.26,24.45,80.32,25.51,81.07,24.91z"/>
		</g>
	</g>
</g>
<g>
	<g>
		<path class="st0" d="M134.06,82.24c1.26-0.57,2.42-1.35,3.41-2.31c1.95-1.89,3.26-4.35,5.05-6.39c4.64-5.27,11.45-2.74,17.53-3.96
			c3.94-0.79,6.88-3.25,9.23-6.41c0.43-0.59,0.84-1.2,1.13-1.87c1.1-2.58,0.29-5.54-0.52-8.23c-0.07,1.21,0.5,3.39,0.09,4.53
			c-0.21,0.57-0.34,0.8-0.75,1.25c-0.38,0.41-1.01,1.38-1.5,1.65c-4.18,2.28-9.61,1.89-14.37,1.63c-4.43-0.24-8.85-1.6-13.22-1.14
			c-4.48,0.48-8.27,2.82-11.65,5.27c-1.4,1.02-2.77,2.07-4.09,3.15c-2.72,2.22-5.79,5.76-3.98,9.46c0.86,1.77,2.55,3.04,4.39,3.76
			C127.76,83.8,131.16,83.57,134.06,82.24z"/>
		<g>
			<path class="st1" d="M134.44,82.89c4.76-2.5,6.33-7.94,10.75-10.62c4.66-2.83,10.71-0.81,15.78-2.15
				c3.66-0.97,6.73-3.43,8.9-6.49c2.44-3.44,1.85-6.9,0.74-10.76c-0.23-0.79-1.51-0.67-1.47,0.2c0.08,2.16,0.46,4.37-1.15,6.13
				c-2.21,2.43-6.71,2.38-9.72,2.38c-4.23,0.01-8.3-0.67-12.49-1.16c-8.2-0.96-14.14,2.3-20.42,7.28
				c-3.37,2.66-7.93,6.76-5.59,11.56c2.61,5.34,9.69,5.55,14.5,3.7c0.89-0.34,0.5-1.79-0.4-1.45c-2.35,0.9-4.83,1.45-7.35,0.87
				c-2.69-0.25-4-1.82-3.92-4.72c-1.87-2.24-1.77-4.18,0.3-5.82c2.19-2.49,5.15-4.47,7.91-6.28c3.39-2.23,7.07-3.86,11.2-3.91
				c3.79-0.05,7.57,0.94,11.34,1.23c4.27,0.33,10.96,1.01,14.75-1.73c3.1-2.24,2.67-4.69,2.53-8.08c-0.49,0.07-0.98,0.13-1.47,0.2
				c1.97,6.81-0.98,12.91-7.88,15.22c-3.83,1.28-7.98,0.44-11.92,0.95c-7.91,1.02-9.24,8.78-15.68,12.16
				C132.83,82.05,133.58,83.34,134.44,82.89z"/>
		</g>
	</g>
	<g>
		<path class="st2" d="M128.13,74.42c5.5-1.42,5.24-7.14,9.83-9.5c1.84-0.95,4.13-1.08,6.33-1.02c3.65,0.1,7.29,0.65,10.95,0.85
			c3.92,0.22,9.02,0.62,12.27-1.98c1.52-1.22,2.6-3.03,2.81-4.98c0.17-1.61-0.24-3.23-0.65-4.8c0.09,0.96,0.18,1.94,0.05,2.9
			c-0.13,0.96-0.5,1.92-1.21,2.58c-1.92,1.78-5.73,1.07-8.04,0.68c-3.15-0.54-6.16-1.68-9.24-2.47c-3.28-0.85-6.67-1.32-10.05-1.68
			c-1.28-0.13-2.57-0.25-3.85-0.22c-1.49,0.04-2.96,0.3-4.38,0.66c-2.98,0.75-5.78,1.96-8.23,3.55c-3.66,2.38-6.61,5.84-6.92,9.8
			c-0.15,1.91,0.49,4.03,2.75,4.82C123.06,74.49,125.49,75.1,128.13,74.42z"/>
		<g>
			<path class="st1" d="M128.33,75.14c3.59-1.25,4.79-3.7,6.91-6.65c4.59-6.37,14.67-3.24,21.34-2.92
				c8.77,0.42,16.24-2.82,13.81-12.78c-0.2-0.81-1.54-0.66-1.47,0.2c0.64,8.42-8.5,5.54-12.9,4.29c-3.74-1.06-7.41-2.06-11.27-2.61
				c-7.11-1-13.54-0.55-19.79,3.28c-3.97,2.43-8.59,6.93-7.9,12.09C117.76,75.2,124.16,75.84,128.33,75.14
				c0.95-0.16,0.55-1.6-0.4-1.45c-3.47,0.58-9.96,0.05-9.22-6.01c0.23-1.91,1.91-4.14,3.18-5.45c2.44-2.54,5.75-4.29,9.06-5.42
				c6.94-2.37,14.72-0.92,21.62,1.01c6.52,1.82,18.7,6.28,17.85-4.83c-0.49,0.07-0.98,0.13-1.47,0.2c3.95,16.15-18,9.47-26.31,9.96
				c-2.68,0.16-5.17,0.75-7.14,2.66c-2.83,2.74-3.38,6.43-7.56,7.89C127.03,74.01,127.42,75.46,128.33,75.14z"/>
		</g>
	</g>
	<g>
		<path class="st3" d="M118.86,57.96c1.84-1.62,4.14-2.89,6.57-3.72c7.54-2.56,16.42-1.85,24.24,0.2c5.04,1.32,9.22,3.29,14.54,3.42
			c1.83,0.05,2.85-0.4,3.99-1.77c0.67-0.81,0.77-1.94,0.76-2.99c-0.01-1.23-0.18-2.59-1.08-3.44c0.29-0.27,0.75-0.01,1.03,0.27
			c1.83,1.77,2.8,4.49,2.13,6.95c-1.24,4.55-5.87,4.23-9.6,3.82c-4.65-0.51-9.25-1.29-13.84-2.16c-4.42-0.84-9.28-1.45-13.61-0.31
			c-4.17,1.09-7.81,4.62-9.66,7.88c-0.7,1.23-1.22,2.55-2.22,3.61s-2.67,1.81-4.25,1.4c-1.43-0.37-2.04-1.12-2.57-2.3
			C113.59,65,115.83,60.63,118.86,57.96z"/>
		<g>
			<path class="st1" d="M119.39,58.49c11.54-9.27,26.2-3.84,38.81-0.75c6.39,1.56,13.15,0.8,11-7.44c1.05,4.02,2.47,8.66-3.25,9.76
				c-1.11,0.21-2.26,0.1-3.37,0.02c-3.22-0.24-6.43-0.78-9.61-1.32c-5.14-0.87-10.38-2.27-15.65-1.82
				c-4.14,0.35-7.67,1.94-10.61,4.89c-1.36,1.36-2.39,2.87-3.35,4.53c-0.33,0.63-0.67,1.24-1.02,1.85
				c-2.29-0.77-4.59-1.55-6.88-2.32C114.91,63.44,117.89,59.97,119.39,58.49c0.69-0.68-0.37-1.74-1.06-1.06
				c-3.18,3.13-7.75,12.89-0.46,14.45c3.84,0.82,5.49-2.73,7.12-5.38c4.34-7.07,11.27-8.78,19.13-7.74
				c5.51,0.73,10.93,1.97,16.46,2.61c2.87,0.33,6.49,0.89,9.01-0.97c3.1-2.29,3.27-12.13-1.9-11.44c-0.47,0.06-0.69,0.74-0.45,1.1
				c0.33,1.02,0.65,2.04,0.98,3.06c-1.33,1.33-2.66,2.67-4,4c-1.12,0.43-3.58-0.37-4.82-0.63c-2.13-0.45-4.19-1.19-6.27-1.82
				c-4.25-1.3-8.57-2.28-13.01-2.65c-7.7-0.64-15.63,0.46-21.78,5.41C117.58,58.03,118.65,59.09,119.39,58.49z"/>
		</g>
	</g>
</g>
<g>
	<path class="st4" d="M63.67,86.14c4.45,8.18,7.15,17.69,8.59,26.86c3.03,19.22,0.58,39.98-9.03,57.1
		c-1.93,3.43-3.91,6.94-5.77,10.52h101.81c8.11-57.83-31.56-123.41-81.25-150.73c-3.63-2-6.88-2.95-9.98-3.13
		c-5.84-0.35-11.2,2.02-17.74,5.26c-14.07,6.96-8.81,20.68-2.14,31.24C53.07,71.05,59.25,78.02,63.67,86.14z"/>
</g>
<g>
	<g>
		<g>
			<path class="st5" d="M49.69,42.54c6.54-3.24,11.9-5.61,17.74-5.26c3.11,0.18,6.35,1.14,9.98,3.13
				c43.84,24.1,79.87,77.98,82.19,130.04c2.52-55.16-35.38-114.83-82.19-140.57c-3.63-2-6.88-2.95-9.98-3.13
				c-5.84-0.35-11.2,2.02-17.74,5.26c-8.85,4.38-10.05,11.44-8.06,18.7C42.8,47.53,45.31,44.71,49.69,42.54z"/>
		</g>
	</g>
</g>
<g>
	<path class="st5" d="M63.69,86.14c4.45,8.18,7.15,17.69,8.59,26.86c3.03,19.22,0.58,39.98-9.03,57.1
		c-1.93,3.43-3.91,6.94-5.77,10.52h8.27c2.67-5.97,5.96-11.76,9.09-17.34c9.61-17.12,12.06-37.88,9.03-57.1
		c-1.44-9.17-4.14-18.68-8.59-26.86c-4.42-8.12-10.6-15.09-15.53-22.88c-5.56-8.8-10.13-19.8-3.35-27.25
		c-1.95,0.81-3.96,1.76-6.1,2.82c-14.07,6.96-8.81,20.68-2.14,31.24C53.09,71.05,59.28,78.02,63.69,86.14z"/>
</g>
<path class="st1" d="M59.42,80.61c7.1,10.7,10.97,23,12.55,35.69c1.48,11.9,0.85,24.12-2.26,35.72
	c-2.78,10.36-8.29,19.22-13.11,28.59h1.82c3.16-5.88,6.59-11.62,9.17-17.78c3.63-8.64,5.68-17.88,6.37-27.21
	c1.67-22.64-4.43-43.86-17.73-62.13c-5.64-7.74-12.7-16.32-13.92-26.18C40.7,34.3,57.08,27.3,68.02,27.49
	c8.99,0.85,17.56,7.45,24.65,12.68c7.22,5.32,13.94,11.3,20.16,17.76c12.53,13.02,23.03,28.02,31.02,44.22
	c11.9,24.14,18.29,51.81,14.6,78.46h1.51c2.92-21.96-0.8-44.97-8.82-65.59c-7.69-19.78-19.11-38.11-33.29-53.89
	c-7.06-7.86-14.85-15.07-23.3-21.41C86.89,33.97,77.84,26.93,68.02,26c-8.05-0.14-19.57,3.83-24.6,10.47
	c-4.32,5.71-2.86,13.11-0.22,19.2C47.18,64.84,53.95,72.36,59.42,80.61z"/>
<g>
	<path class="st4" d="M66.26,149.6c-0.9,0.27-1.8,0.49-2.68,0.68c-8.29,1.8-23.44,4.07-30.62-1.85c-4.07-3.35-5.29-9.71-3.63-14.59
		c1.62-4.75,6.05-7.18,10.45-8.93c10.84-4.3,23.95-6.78,34.63-0.51c4.58,2.68,6.99,8.03,5.7,13.33
		C78.56,144.23,72.36,147.8,66.26,149.6z"/>
</g>
<g>
	<path class="st5" d="M66.62,149.6c-0.9,0.27-1.8,0.49-2.68,0.68c-8.29,1.8-23.44,4.07-30.62-1.85c-4.07-3.35-5.29-9.71-3.63-14.59
		c1.62-4.75,6.05-7.18,10.45-8.93c10.84-4.3,23.95-6.78,34.63-0.51c4.58,2.68,6.99,8.03,5.7,13.33
		C78.91,144.23,72.71,147.8,66.62,149.6z"/>
</g>
<g>
	<path class="st4" d="M101.93,91.06c24.33-27.02-14.5-55.97-39.07-59.36c-4.25-0.59-8.68-0.7-12.71,0.77
		c-9.77,3.57-9.77,15.8-9.64,24.64c0.16,10.33,1.3,20.62,2.43,30.89c1.74,15.73,2.23,30.41,8.31,45.31
		c2.31,5.67,5.38,11.44,10.64,14.56c9.98,5.92,23.59-0.74,29.26-10.87c5.67-10.12,5.61-22.35,5.48-33.95
		c-0.02-2.09-0.03-4.24,0.76-6.17C98.33,94.59,100.27,92.9,101.93,91.06z"/>
</g>
<g>
	<g>
		<g>
			<path class="st5" d="M98.1,94.36c-2.03,1.42-4.3,2.63-5.73,4.65c-1.2,1.7-1.68,3.8-2.12,5.84c-2.47,11.34-5.15,23.27-12.94,31.86
				c-4.62,5.1-11.7,8.38-18.44,8.54c1.01,0.98,2.11,1.87,3.34,2.6c9.98,5.92,23.59-0.74,29.26-10.87
				c5.67-10.12,5.61-22.35,5.48-33.95c-0.02-2.09-0.03-4.24,0.76-6.17c0.94-2.29,2.88-3.98,4.54-5.82c0.14-0.15,0.27-0.31,0.4-0.46
				C101.32,91.9,99.81,93.16,98.1,94.36z"/>
		</g>
		<g>
			<path class="st5" d="M41.8,73.91c1.05-8.85,2.19-17.7,4.06-26.41c1.04-4.86,2.36-10.75,5.15-15.21
				c-0.18,0.06-0.37,0.11-0.55,0.17c-9.77,3.57-9.77,15.8-9.64,24.64C40.91,62.72,41.29,68.32,41.8,73.91z"/>
		</g>
	</g>
</g>
<g>
	<g>
		<path class="st1" d="M49.95,31.74c-11.63,4.87-10.48,19.74-10.04,30.2c0.42,9.93,1.66,19.79,2.67,29.66
			c0.91,8.84,1.59,17.73,3.37,26.45c2.44,11.95,7.48,30.77,22.03,32.64c13.43,1.72,23.99-10.01,27.28-21.84
			c2.51-9.05,1.7-18.14,2.13-27.38c0.29-6.26,5.23-9.33,8.42-14.15c2.26-3.41,3.71-7.1,4.37-11.14c0.15-0.94-1.29-1.35-1.45-0.4
			c-1.26,7.72-5.89,12.19-10.39,18.13c-3.45,4.56-2.37,10.43-2.42,15.81c-0.14,14.23-2.55,30.77-16.92,37.54
			c-33.47,15.77-34.91-53.82-36.61-71.79c-0.74-7.83-1.34-15.74-1.11-23.62c0.21-7.31,1.53-15.5,9.08-18.66
			C51.23,32.82,50.84,31.37,49.95,31.74L49.95,31.74z"/>
	</g>
</g>
<path class="st4" d="M205.48,61.7c2.38,0.14,4.71,0.51,6.95,1.17c1.44,0.42,2.87,1.02,3.95,2.05c3.72,3.52,0.72,10.41-2.57,13.12
	c-3.75,3.09-8.69,4.18-13.31,5.7c-11.85,3.89-21.74,11.64-31.6,19.01c-8.19,6.12-22.76,19.35-33.81,17.66
	c-8.71-1.33-10.96-11.67-9.54-18.92c2.59-13.2,13.55-20.68,25.13-25.73c9.69-4.23,19.65-7.95,29.94-10.46
	C188.3,63.42,197.17,61.2,205.48,61.7z"/>
<path class="st6" d="M216.38,64.85c-1.09-1.03-2.52-1.62-3.95-2.05c-2.24-0.66-4.57-1.02-6.95-1.17c-3.56-0.21-7.23,0.09-10.86,0.63
	c0.01,0.25,0.02,0.5,0.08,0.77c0.37,1.96,2.37,3.11,4.17,3.99c-1.08-0.53-2.15,2.81-2.19,3.38c-0.09,1.38,0.29,3.32,1.18,4.42
	c0.46,0.56,3.15,2.29,3.79,1.09c-0.44,0.82-1.36,1.3-1.79,2.12c-0.37,0.7-0.33,1.54-0.13,2.31c0.36,1.4,1.2,2.3,2.3,2.85
	c4.16-1.29,8.46-2.46,11.8-5.22C217.1,75.27,220.1,68.38,216.38,64.85z"/>
<path class="st5" d="M146.63,118.09c8.3-3.83,16.74-11.21,22.27-15.34c9.86-7.37,19.75-15.12,31.6-19.01
	c4.62-1.51,9.56-2.6,13.31-5.7c2.98-2.46,5.7-8.33,3.43-12.04c-0.81,1.98-2.09,3.78-3.43,4.88c-3.75,3.09-8.69,4.18-13.31,5.7
	c-11.85,3.89-21.74,11.64-31.6,19.01c-6.14,4.59-15.87,13.18-25.01,16.47"/>
<path class="st4" d="M79.67,96.49c3.37-0.73,6.69-0.72,9.22,0.98c16.14,10.84-25.91,37.99-33.37,44.1
	c-2.99,2.46-6.04,4.94-9.59,6.49c-3.55,1.54-7.74,2.05-11.27,0.47c-5.36-2.39-7.52-8.87-6.75-14.36c1.2-8.64,9.4-14.15,15.9-18.87
	C54.22,107.73,66.87,99.24,79.67,96.49z"/>
<path class="st6" d="M88.89,97.47c-2.54-1.7-5.85-1.71-9.22-0.98c-4.66,1-9.29,2.77-13.81,4.97c-0.07,0.82,0.14,1.72,0.72,2.68
	c1.03,1.71,3.31,2.09,5.29,2.29c-1.2-0.12-1.05,3.38-0.88,3.93c0.4,1.33,1.42,3.02,2.65,3.74c0.63,0.37,3.75,1.06,3.93-0.29
	c-0.12,0.92-0.82,1.69-0.94,2.61c-0.1,0.78,0.23,1.56,0.68,2.21c1.14,1.65,2.78,2.11,4.6,1.86
	C90.87,111.82,96.72,102.73,88.89,97.47z"/>
<path class="st5" d="M88.93,97.47c-0.11-0.07-0.23-0.13-0.34-0.19c6.57,12.18-29.38,35.5-36.22,41.1c-2.99,2.45-6.04,4.94-9.59,6.49
	c-3.55,1.54-7.74,2.05-11.27,0.47c-0.48-0.22-0.93-0.47-1.36-0.75c1.11,1.69,2.62,3.08,4.55,3.94c3.54,1.58,7.72,1.07,11.27-0.47
	c3.55-1.54,6.6-4.03,9.59-6.49C63.02,135.46,105.07,108.31,88.93,97.47z"/>
<g>
	<g>
		<path class="st4" d="M41.83,40.98c-3.29-1.27-6.61-2.54-10.11-2.96c-3.5-0.41-7.24,0.12-10.08,2.2c-0.53,0.39-1.05,0.86-1.27,1.47
			c-0.19,0.51-0.16,1.08-0.08,1.63c0.38,2.55,1.87,4.79,3.57,6.73c2.31,2.62,5.13,4.87,8.42,6.05s7.07,1.19,10.17-0.42"/>
		<g>
			<path class="st1" d="M42.03,40.26c-5.35-2.05-11.32-4.25-17.07-2.47c-3.21,0.99-6.02,2.73-5.26,6.37
				c2,9.61,14.35,15.99,23.12,12.18c0.88-0.38,0.12-1.68-0.76-1.3c-7.2,3.13-17.88-1.85-20.31-9.57
				c-3.45-10.96,15.62-5.39,19.88-3.76C42.54,42.05,42.93,40.6,42.03,40.26L42.03,40.26z"/>
		</g>
	</g>
	<path class="st7" d="M39.75,45.09c1.08,0.32,2.1,0.83,3.11,1.33c0.2,0.1,0.4,0.2,0.56,0.35c0.23,0.21,0.37,0.51,0.48,0.81
		c0.36,1.03,0.37,2.17,0.02,3.2c-0.06,0.18-0.14,0.37-0.27,0.51c-0.16,0.18-0.4,0.29-0.63,0.37c-0.93,0.33-1.95,0.35-2.92,0.17
		c-0.97-0.17-1.9-0.54-2.79-0.96c-1.13-0.53-2.24-1.18-3.09-2.09c-0.79-0.84-1.76-2.49-1.32-3.71c0.22-0.6,1.1-0.45,1.63-0.47
		c0.82-0.03,1.64-0.04,2.46,0.01C37.92,44.68,38.85,44.82,39.75,45.09z"/>
	<g>
		<g>
			<path class="st1" d="M42.93,50.83c-1.65,0.09-3.38,0.16-4.98-0.32c-2.05-0.62-4.91-2.56-4.35-5.01c0.21-0.94-1.23-1.34-1.45-0.4
				c-0.59,2.59,1.09,4.41,3.12,5.75c2.32,1.52,4.95,1.63,7.65,1.48C43.89,52.27,43.9,50.77,42.93,50.83L42.93,50.83z"/>
		</g>
	</g>
	<g>
		<g>
			<path class="st1" d="M43.26,45.67c-5.48-2.98-11.95-2.71-17.13,0.8c-0.79,0.54-0.05,1.84,0.76,1.3
				c4.74-3.21,10.57-3.54,15.62-0.8C43.35,47.43,44.11,46.13,43.26,45.67L43.26,45.67z"/>
		</g>
	</g>
</g>
<g>
	<g>
		<g>
			<path class="st6" d="M59.53,46.65c4.05-7.04-0.32-21.53-10-21c-7.49,0.41-13.03,9.11-10.92,16.14
				c2.59,8.62,15.67,13.83,20.89,4.92C59.5,46.69,59.51,46.67,59.53,46.65z"/>
		</g>
		<g>
			<g>
				<path class="st8" d="M60.2,47.1c0.71-4.43-0.37-8.83-3.1-12.41c-3.3-4.31-7.85-5.6-13.04-6.25c-1.27-0.16-1.26,1.84,0,2
					c4.27,0.54,8.15,1.51,11.04,4.93c2.61,3.09,3.81,7.2,3.17,11.19C58.07,47.83,60,48.37,60.2,47.1L60.2,47.1z"/>
			</g>
		</g>
		<g>
			<g>
				<path class="st1" d="M60.17,46.96c3.01-5.77,1.71-13.92-2.7-18.69c-5.09-5.51-13.16-3.73-17.3,2.01
					c-4.48,6.21-3.19,14.28,2.94,18.81C48.51,53.07,56.49,53.3,60.17,46.96c0.49-0.84-0.81-1.59-1.3-0.76
					c-3.44,5.94-10.97,5.01-15.59,1.12c-5.34-4.49-5.69-12.1-0.98-17.29c10.52-11.58,21.88,5.99,16.57,16.17
					C58.43,47.06,59.73,47.82,60.17,46.96z"/>
			</g>
		</g>
		<g>
			<path class="st6" d="M47.21,41.01c2.36-5.9-0.98-18.5-7.21-18.39c-4.82,0.08-8.09,7.35-6.47,13.46
				c1.98,7.49,10.62,12.44,13.66,4.98C47.19,41.05,47.2,41.03,47.21,41.01z"/>
		</g>
		<g>
			<g>
				<path class="st8" d="M46.87,42.51c1.71-4.18,1.36-8.91-1.25-12.68c-2.47-3.57-7.19-4.66-11.31-4.54c-1.28,0.04-1.29,2.04,0,2
					c3.75-0.11,8,0.83,10.04,4.28c1.93,3.25,1.99,6.97,0.58,10.4C44.45,43.17,46.39,43.68,46.87,42.51L46.87,42.51z"/>
			</g>
		</g>
		<g>
			<g>
				<path class="st1" d="M47.93,41.15c1.82-5.16,0.6-12.3-2.85-16.56c-3.32-4.1-8.37-3.18-10.95,1.23
					c-3.31,5.66-1.85,13.47,3.25,17.57C41.21,46.46,45.99,45.95,47.93,41.15c0.36-0.89-1.09-1.28-1.45-0.4
					c-2.4,5.94-8.53,2.16-10.82-1.62c-2.55-4.2-2.64-10.99,1.28-14.49c4.44-3.97,8.08,1.69,9.29,5.46
					c1.09,3.38,1.45,7.25,0.25,10.65C46.16,41.66,47.61,42.05,47.93,41.15z"/>
			</g>
		</g>
		<g>
			<path class="st6" d="M38.04,32.22c0.47-5.68-4.92-16.66-9.63-15.71c-3.65,0.74-4.5,7.79-1.89,13.11
				c3.2,6.53,10.88,9.84,11.52,2.65C38.04,32.26,38.04,32.24,38.04,32.22z"/>
		</g>
		<g>
			<g>
				<path class="st8" d="M25.91,20.04c3.19,0.81,5.65,3.13,7.37,5.87c1.32,2.1,3.52,6.6,1.56,8.96c-0.82,0.98,0.59,2.4,1.41,1.41
					c2.28-2.73,1.06-6.94-0.36-9.8c-1.91-3.85-5.19-7.28-9.45-8.36C25.19,17.79,24.66,19.72,25.91,20.04L25.91,20.04z"/>
			</g>
		</g>
		<g>
			<g>
				<path class="st1" d="M38.79,32.16c0.24-5.08-2.27-11.36-6.06-14.78c-3.61-3.25-7.44-1.17-8.27,3.32
					c-1.04,5.64,1.73,12.25,6.71,15.21C34.89,38.12,38.41,36.58,38.79,32.16c0.08-0.96-1.42-0.96-1.5,0
					c-0.47,5.49-5.7,2.78-7.98,0.23c-2.85-3.19-4.67-8.59-3.04-12.76c2.14-5.47,6.65-0.26,8.25,2.56c1.68,2.97,2.93,6.51,2.77,9.96
					C37.24,33.12,38.74,33.12,38.79,32.16z"/>
			</g>
		</g>
		<g>
			<path class="st6" d="M28.33,24.37c-0.05-4.68-5.57-12.85-9.55-11.42c-3.08,1.11-3.25,6.95-0.58,10.91
				c3.28,4.86,10.16,6.47,10.13,0.54C28.33,24.4,28.33,24.38,28.33,24.37z"/>
		</g>
		<g>
			<g>
				<path class="st8" d="M16.71,15.5c6.73,0.6,8.78,5.81,8.28,11.95c-0.1,1.28,1.9,1.28,2,0c0.61-7.4-2.43-13.25-10.28-13.95
					C15.43,13.38,15.43,15.38,16.71,15.5L16.71,15.5z"/>
			</g>
		</g>
		<g>
			<g>
				<path class="st1" d="M29.08,24.3c-0.19-4.19-2.9-9.09-6.46-11.36c-3.42-2.18-6.59-0.06-6.99,3.77
					c-0.5,4.72,2.37,9.69,6.73,11.56C25.77,29.74,29.11,28.3,29.08,24.3c-0.01-0.96-1.51-0.97-1.5,0c0.03,4.06-3.88,3.36-6.25,1.67
					c-2.91-2.09-4.8-6-4.15-9.6c0.77-4.22,4.35-2.84,6.43-0.59c2.08,2.24,3.83,5.42,3.97,8.53C27.62,25.26,29.12,25.27,29.08,24.3z"
					/>
			</g>
		</g>
		<g>
			<path class="st6" d="M20.99,18.42c-0.89-4-6.6-10.96-9.4-9.73c-2.17,0.95-1.24,5.94,1.52,9.32c3.4,4.14,8.98,5.51,7.89,0.44
				C20.99,18.44,20.99,18.43,20.99,18.42z"/>
		</g>
		<g>
			<g>
				<path class="st8" d="M12.29,11.62c3.26,2.22,6.09,5.38,5.72,9.57c-0.11,1.28,1.89,1.27,2,0c0.43-4.9-2.89-8.7-6.71-11.3
					C12.23,9.16,11.23,10.9,12.29,11.62L12.29,11.62z"/>
			</g>
		</g>
		<g>
			<g>
				<path class="st1" d="M21.71,18.15c-0.91-3.62-3.69-7.45-6.81-9.48c-2.81-1.83-5.47-0.48-5.24,3c0.28,4.25,3.46,8.63,7.4,10.24
					C20.13,23.17,22.44,21.51,21.71,18.15c-0.21-0.94-1.65-0.54-1.45,0.4c0.87,3.99-3.58,1.73-5.12,0.41
					c-2.1-1.8-4.5-5.31-3.98-8.27c0.57-3.26,4.04,0,5.15,1.19c1.73,1.86,3.33,4.18,3.95,6.67C20.5,19.48,21.95,19.09,21.71,18.15z"
					/>
			</g>
		</g>
		<g>
			<path class="st6" d="M14.14,10.86c-1.42-3.15-7.39-7.7-9.55-6.05c-1.67,1.28-0.05,5.25,2.85,7.45c3.55,2.71,8.48,2.61,6.71-1.38
				C14.15,10.88,14.14,10.87,14.14,10.86z"/>
		</g>
		<g>
			<g>
				<path class="st8" d="M3.73,6.04c3.04,1.33,6.4,4,6.78,7.53c0.14,1.27,2.14,1.28,2,0C12.04,9.3,8.52,5.96,4.74,4.31
					C3.57,3.8,2.55,5.53,3.73,6.04L3.73,6.04z"/>
			</g>
		</g>
		<g>
			<g>
				<path class="st1" d="M14.78,10.42c-1.4-2.85-4.55-5.62-7.61-6.53C4.29,3.03,2.59,5.14,3.43,7.91c1.04,3.43,4.45,6.35,8,6.84
					C14.35,15.13,16.01,13.17,14.78,10.42c-0.39-0.88-1.68-0.12-1.3,0.76c1.39,3.12-2.95,1.97-4.35,1.24
					c-1.98-1.04-4.45-3.48-4.47-5.9C4.64,3.84,8.17,5.89,9.25,6.63c1.69,1.16,3.32,2.69,4.23,4.55
					C13.91,12.04,15.21,11.28,14.78,10.42z"/>
			</g>
		</g>
	</g>
</g>
<g>
	<g>
		<path class="st0" d="M45.85,66.71c-1.44,0.99-3.26,1.36-5,1.18c-1.68-0.18-3.18-0.68-4.88-0.44c-1.63,0.23-3.09,1.17-4.32,2.21
			c-1.56,1.3-2.94,2.85-4.73,3.82c-1.64,0.89-3.56,1.23-5.41,0.97c-1.34-0.19-2.61-0.68-3.86-1.2c-1.04-0.43-2.07-0.89-3.11-1.34
			c4.27-0.93,8.55-2.53,11.62-5.64c2.08-2.1,3.54-4.84,5.97-6.52c2.5-1.72,5.67-2.08,8.71-2.19c1.26-0.04,2.52-0.05,3.77-0.03
			c1.31,0.03,2.77,0.16,3.63,1.14C50.16,60.87,47.82,65.37,45.85,66.71z"/>
		<g>
			<path class="st1" d="M45.47,66.06c-4.5,2.46-9.09-0.72-13.55,2.45c-1.86,1.32-3.33,3.29-5.38,4.31
				c-4.04,1.99-7.88,0.07-11.61-1.56c-0.06,0.46-0.12,0.91-0.18,1.37c5.67-1.35,10.14-3.56,13.88-8.08
				c2.99-3.61,5.85-5.72,10.69-6.15c1.36-0.12,3.04-0.41,4.36-0.12c4.51,1.02,4.45,5.5,1.64,7.91c-0.73,0.63,0.33,1.69,1.06,1.06
				c1.97-1.69,4.18-5.09,3.12-7.85c-1.19-3.07-5.05-2.67-7.71-2.6c-4.08,0.1-8.15,0.55-11.32,3.35c-1.85,1.64-3.07,3.87-4.83,5.6
				c-3.11,3.06-7.15,4.46-11.29,5.45c-0.58,0.14-0.78,1.11-0.18,1.37c4.6,2.01,9.06,4.06,13.76,1.15c1.14-0.71,2.07-1.65,3.1-2.51
				c2.98-2.49,5.8-2.37,9.62-2.58c2.1-0.12,3.64-0.19,5.58-1.25C47.07,66.9,46.32,65.6,45.47,66.06z"/>
		</g>
	</g>
	<g>
		<path class="st2" d="M45.49,62.03c-3.52,1.64-6.54-1.72-10.13-1.02c-1.44,0.28-2.65,1.23-3.72,2.23
			c-1.77,1.68-3.28,3.61-4.99,5.35s-3.67,3.32-5.99,4.08c-2.32,0.75-5.06,0.56-6.95-0.98c2.07-0.06,4.12-0.85,5.68-2.22
			c2.2-1.92,3.32-4.75,4.83-7.24c1.17-1.94,2.6-3.71,4.09-5.42c0.56-0.65,1.14-1.28,1.8-1.83c0.77-0.64,1.64-1.15,2.55-1.57
			c1.9-0.9,3.96-1.46,6.06-1.64c3.14-0.28,6.5,0.37,8.84,2.48c1.12,1.02,1.97,2.5,1.27,3.96C48.06,59.81,47.18,61.24,45.49,62.03z"
			/>
		<g>
			<path class="st1" d="M45.29,61.3c-4.76,1.46-8.36-2.84-12.9,0.32c-5.44,3.79-10.05,14.55-18.3,9.41
				c-0.13,0.47-0.25,0.93-0.38,1.4c5.92-0.69,7.98-4.41,10.79-9.2c2.32-3.95,5.37-8.06,9.81-9.73c1.89-0.71,3.96-1.12,5.99-1.07
				c2.01,0,3.89,0.5,5.63,1.5c2.72,3.21,2.44,5.69-0.82,7.43c-0.82,0.51-0.06,1.81,0.76,1.3c8.41-5.25,0.83-11.94-6.36-11.7
				c-4.24,0.14-8.36,1.73-11.29,4.82c-4.65,4.9-7.02,14.27-14.51,15.14C13,71,12.65,71.9,13.33,72.32c4.48,2.79,9.1,1.08,12.8-2.2
				c3.97-3.52,6.47-9.15,12.89-7.96c2.54,0.47,4.07,1.37,6.67,0.57C46.61,62.47,46.22,61.02,45.29,61.3z"/>
		</g>
	</g>
	<g>
		<path class="st3" d="M41.08,48.57c-1.81-0.1-3.65,0.2-5.32,0.81c-5.17,1.9-9.21,6.25-11.98,10.89c-1.45,2.42-2.5,5.07-4.19,7.33
			c-1.69,2.25-4.24,4.12-7.05,4.03c1.74,1.02,4.01,1.07,5.79,0.12c1.2-0.64,2.14-1.66,3.03-2.69c2.04-2.36,3.91-4.84,5.72-7.38
			c1.74-2.44,3.84-4.94,6.62-6.23c2.68-1.24,6.44-0.85,9.14,0.17c1.02,0.39,2.01,0.91,3.09,1.06c1.08,0.15,2.33-0.16,2.89-1.09
			c0.51-0.84,0.4-1.54,0.02-2.45C47.57,50.22,44.05,48.74,41.08,48.57z"/>
		<g>
			<path class="st1" d="M41.08,47.82c-5.5,0.09-10.06,2.56-13.8,6.53c-4.66,4.96-7.09,15.92-14.75,16.53
				c-0.88,0.07-0.97,1.15-0.2,1.47c5.54,2.33,8.71-1.57,11.92-5.64c2.09-2.65,3.85-5.67,6.26-8.04c4.78-4.69,8.84-2.73,14.42-1.47
				c2.31,0.52,4.97-0.13,4.94-2.99C49.82,50.02,44.3,48.2,41.08,47.82c-0.96-0.11-0.95,1.39,0,1.5c1.7,0.11,3.28,0.6,4.73,1.5
				c0.52,4.28-0.41,5.64-2.79,4.09c-1.06-0.17-2.09-0.65-3.18-0.8c-2.78-0.4-5.48-0.07-7.88,1.44c-6.04,3.79-10.79,18.9-19.24,15.36
				c-0.07,0.49-0.13,0.98-0.2,1.47c4.96-0.39,7.64-3.87,9.89-8c4.04-7.44,9.29-14.9,18.66-15.05
				C42.04,49.31,42.04,47.81,41.08,47.82z"/>
		</g>
	</g>
</g>
<g>
	<g>
		<path class="st1" d="M133.51,87.83c10.4-10.51,26.23-15.69,40.09-19.85c6.92-2.07,14.07-3.9,21.22-4.95
			c7.17-1.05,28.51-1.84,20.97,11.36c-3.81,6.68-12.96,7.42-19.46,10.09c-5.78,2.37-11.13,5.6-16.26,9.14
			c-10.96,7.57-20.85,17.1-32.7,23.27c-0.86,0.45-0.1,1.74,0.76,1.3c15.13-7.88,26.97-20.87,41.97-29.06
			c4.39-2.4,8.96-4.14,13.71-5.64c3.12-0.99,6.36-1.97,9.09-3.84c3.73-2.55,6.98-7.67,5.68-12.35c-1.61-5.83-9.94-6.32-14.89-6.41
			c-8.47-0.16-16.96,2.03-25.09,4.14c-15.69,4.08-34.47,9.95-46.15,21.74C131.77,87.46,132.83,88.52,133.51,87.83L133.51,87.83z"/>
	</g>
</g>
<g>
	<g>
		<path class="st1" d="M53.78,143.95c8.85-7.16,18.34-13.38,26.67-21.2c5.04-4.73,16.27-14.86,11.74-22.93
			c-3.55-6.32-11.89-4.56-17.51-2.77c-10.41,3.31-19.78,9.41-28.61,15.7c-6.48,4.61-14.46,9.43-17.71,17.06
			c-2.93,6.88-1.94,14.46,4.07,19.15c9.64,7.53,22.9,3.34,33.81,1.42c0.95-0.17,0.55-1.61-0.4-1.45c-9.78,1.72-21.17,5.4-30.39,0.27
			c-6.29-3.5-8.33-10.14-6.38-16.93c2.41-8.35,11.09-13.5,17.75-18.24c7.42-5.28,15.14-10.33,23.59-13.81
			c5.72-2.36,20.04-7.22,21.2,2.63c1.01,8.52-10.53,17.47-16.1,22.3c-7.3,6.33-15.32,11.67-22.81,17.73
			C51.97,143.49,53.03,144.55,53.78,143.95L53.78,143.95z"/>
	</g>
</g>
<g>
	<g>
		<g>
			<g>
				<path class="st1" d="M67.08,79.02c0.68,3.93,4.04,6.16,7.95,5.55c4.36-0.67,7.5-4.12,8.22-8.39c0.16-0.94-1.29-1.35-1.45-0.4
					c-0.54,3.18-2.43,5.88-5.57,6.95c-3.51,1.2-7.05-0.26-7.71-4.12C68.36,77.67,66.92,78.07,67.08,79.02L67.08,79.02z"/>
			</g>
		</g>
		<g>
			<g>
				<path class="st1" d="M70.61,83.19c-0.52,1.27-1.04,2.54-1.56,3.81c-0.37,0.89,1.08,1.28,1.45,0.4c0.52-1.27,1.04-2.54,1.56-3.81
					C72.42,82.7,70.97,82.31,70.61,83.19L70.61,83.19z"/>
			</g>
		</g>
		<g>
			<g>
				<path class="st1" d="M74.94,84.14c0.14,0.99,0.28,1.99,0.43,2.98c0.06,0.4,0.57,0.62,0.92,0.52c0.43-0.11,0.58-0.52,0.52-0.92
					c-0.14-0.99-0.28-1.99-0.43-2.98c-0.06-0.4-0.57-0.62-0.92-0.52C75.03,83.33,74.88,83.74,74.94,84.14L74.94,84.14z"/>
			</g>
		</g>
		<g>
			<g>
				<path class="st1" d="M79.06,81.9c0.59,1.07,1.17,2.13,1.76,3.2c0.47,0.85,1.76,0.09,1.3-0.76c-0.59-1.07-1.17-2.13-1.76-3.2
					C79.89,80.29,78.59,81.05,79.06,81.9L79.06,81.9z"/>
			</g>
		</g>
	</g>
</g>
<g>
	<g>
		<g>
			<g>
				<path class="st1" d="M43.59,84.59c0.56,3.23,3.34,5.05,6.54,4.55c3.54-0.55,6.1-3.35,6.68-6.82c0.16-0.94-1.29-1.35-1.45-0.4
					c-0.42,2.49-1.89,4.61-4.35,5.46c-2.74,0.94-5.47-0.18-5.98-3.19C44.87,83.24,43.43,83.64,43.59,84.59L43.59,84.59z"/>
			</g>
		</g>
		<g>
			<g>
				<path class="st1" d="M46.42,87.85c-0.42,1.02-0.83,2.03-1.25,3.05c-0.37,0.89,1.08,1.28,1.45,0.4c0.42-1.02,0.83-2.03,1.25-3.05
					C48.23,87.35,46.78,86.96,46.42,87.85L46.42,87.85z"/>
			</g>
		</g>
		<g>
			<g>
				<path class="st1" d="M49.88,88.68c0.11,0.79,0.23,1.59,0.34,2.38c0.06,0.4,0.57,0.62,0.92,0.52c0.43-0.12,0.58-0.52,0.52-0.92
					c-0.11-0.79-0.23-1.59-0.34-2.38c-0.06-0.4-0.57-0.62-0.92-0.52C49.97,87.88,49.82,88.28,49.88,88.68L49.88,88.68z"/>
			</g>
		</g>
		<g>
			<g>
				<path class="st1" d="M53.19,86.92c0.47,0.85,0.94,1.71,1.41,2.56s1.76,0.09,1.3-0.76c-0.47-0.85-0.94-1.71-1.41-2.56
					C54.02,85.32,52.72,86.08,53.19,86.92L53.19,86.92z"/>
			</g>
		</g>
	</g>
</g>
<g>
	<g>
		<path class="st1" d="M78.86,138.19c-0.07,0.28-0.42,1.61-0.91,1.59c-0.56-0.02-0.4-1.44-0.33-1.78c0.08-0.4,0.36-1.47,0.84-1.56
			C79.11,136.32,78.93,137.82,78.86,138.19c-0.17,0.94,1.28,1.35,1.45,0.4c0.22-1.24,0.21-3.4-1.43-3.68
			c-1.49-0.25-2.43,1.48-2.7,2.69s-0.19,3.3,1.33,3.66c1.56,0.38,2.49-1.47,2.8-2.68C80.55,137.65,79.1,137.25,78.86,138.19z"/>
	</g>
</g>
<g>
	<g>
		<path class="st1" d="M60.73,144c0.77,0.95,2.28,2.09,3.52,1.27c1.36-0.9,0.54-2.93-0.23-3.93c-0.74-0.97-2.26-2.15-3.52-1.39
			c-1.41,0.85-0.63,2.87,0.11,3.89c0.56,0.78,1.86,0.03,1.3-0.76c-0.17-0.24-1.07-1.55-0.63-1.85c0.43-0.3,1.38,0.77,1.57,1.03
			c0.18,0.24,0.97,1.44,0.58,1.76c-0.42,0.34-1.45-0.86-1.63-1.09C61.18,142.19,60.13,143.26,60.73,144z"/>
	</g>
</g>
<g>
	<g>
		<path class="st4" d="M69.93,28.52c0.23-3.51,0.48-7.07,1.57-10.42c1.1-3.35,3.16-6.51,6.24-8.21c0.58-0.32,1.22-0.59,1.87-0.54
			c0.55,0.04,1.05,0.31,1.51,0.61c2.15,1.42,3.56,3.72,4.6,6.07c1.41,3.2,2.26,6.7,1.94,10.18c-0.32,3.48-1.9,6.92-4.66,9.05"/>
		<g>
			<path class="st1" d="M70.68,28.52C71,23.95,74.46,3.64,82.72,12.55c5.5,5.93,5.9,16.72-0.24,22.18c-0.72,0.64,0.34,1.7,1.06,1.06
				c3.78-3.36,5.37-8.03,4.83-13.05c-0.48-4.46-2.61-10.94-6.79-13.37c-3.08-1.79-5.85,0.55-7.83,2.96
				c-3.73,4.51-4.18,10.6-4.57,16.19C69.12,29.48,70.62,29.48,70.68,28.52L70.68,28.52z"/>
		</g>
	</g>
	<path class="st7" d="M74.54,28.35c-0.16,1.12-0.13,2.25-0.1,3.38c0.01,0.22,0.01,0.45,0.08,0.66c0.1,0.3,0.31,0.55,0.53,0.77
		c0.78,0.76,1.82,1.25,2.9,1.36c0.19,0.02,0.39,0.03,0.57-0.03c0.24-0.07,0.43-0.24,0.6-0.41c0.69-0.71,1.14-1.63,1.39-2.58
		c0.25-0.96,0.31-1.95,0.31-2.94c-0.01-1.25-0.13-2.52-0.6-3.68c-0.44-1.07-1.52-2.65-2.81-2.76c-0.64-0.05-0.87,0.81-1.11,1.28
		c-0.38,0.73-0.73,1.47-1.02,2.24C74.94,26.52,74.67,27.42,74.54,28.35z"/>
	<g>
		<g>
			<path class="st1" d="M79.73,34.35c1.93-3.66,3.89-11.48-1.91-12.86c-0.94-0.22-1.34,1.22-0.4,1.45c2.43,0.58,3.03,3.79,2.78,5.91
				c-0.2,1.7-0.97,3.25-1.76,4.75C77.99,34.44,79.28,35.2,79.73,34.35L79.73,34.35z"/>
		</g>
	</g>
	<g>
		<g>
			<path class="st1" d="M75.08,31.71c-0.39-5.68,2.34-10.96,7.24-13.87c0.83-0.49,0.08-1.79-0.76-1.3
				c-5.33,3.17-8.41,8.96-7.99,15.17C73.65,32.67,75.15,32.68,75.08,31.71L75.08,31.71z"/>
		</g>
	</g>
</g>
</svg>
